<?xml version="1.0" encoding="UTF-8"?>
<svg width="17px" height="17px" viewBox="0 0 17 17" version="1.1" xmlns="http://www.w3.org/2000/svg" xmlns:xlink="http://www.w3.org/1999/xlink">
    <!-- Generator: Sketch 51.1 (57501) - http://www.bohemiancoding.com/sketch -->
    <title>Fill 34</title>
    <desc>Created with Sketch.</desc>
    <defs></defs>
    <g id="Page-1" stroke="none" stroke-width="1" fill="none" fill-rule="evenodd">
        <g id="Twitter_TweetTreatment_TextOnlyOnImageOrVideoBackground" transform="translate(-302.000000, -276.000000)" fill="#657786">
            <g id="Group" transform="translate(302.000000, 276.000000)">
                <path d="M13.3965385,10.7859231 C12.4771538,11.5637692 9.45807692,13.5440769 7.90976923,14.5471538 L7.90976923,11.965 C7.90976923,11.6302308 7.63776923,11.357 7.303,11.357 C7.24515385,11.357 7.03715385,11.357 6.98053846,11.357 C4.01438462,11.357 1.86176923,9.35207692 1.86176923,6.589 C1.86176923,3.72623077 4.10423077,1.48376923 6.96576923,1.48376923 L10.3245385,1.49238462 C10.3257692,1.49238462 10.3257692,1.49238462 10.3257692,1.49238462 C13.1873077,1.49238462 15.4285385,3.73238462 15.431,6.59269231 C15.431,8.13976923 14.6691538,9.70776923 13.3965385,10.7859231 Z M10.3282308,0.276384615 L6.96823077,0.269 L6.967,0.269 C3.42238462,0.269 0.647,3.04561538 0.647,6.589 C0.647,9.90961538 3.22792308,12.4265385 6.695,12.5606923 L6.695,15.661 C6.695,15.7483846 6.72946154,15.8936154 6.791,15.9883846 C6.90669231,16.1705385 7.10238462,16.269 7.303,16.269 C7.415,16.269 7.52823077,16.2382308 7.62915385,16.173 C7.84330769,16.0376154 12.8734615,12.8203846 14.1817692,11.7126923 C15.7226923,10.4080769 16.6433077,8.49792308 16.647,6.60007692 L16.647,6.59638462 C16.647,6.59515385 16.647,6.59392308 16.647,6.59269231 C16.647,6.59146154 16.647,6.589 16.647,6.58653846 C16.6420769,3.04807692 13.8679231,0.277615385 10.3282308,0.276384615 Z" id="Fill-34"></path>
            </g>
        </g>
    </g>
</svg>