<?xml version="1.0" encoding="UTF-8"?>
<svg width="19px" height="18px" viewBox="0 0 19 18" version="1.1" xmlns="http://www.w3.org/2000/svg" xmlns:xlink="http://www.w3.org/1999/xlink">
    <!-- Generator: Sketch 51.1 (57501) - http://www.bohemiancoding.com/sketch -->
    <title>Fill 33</title>
    <desc>Created with Sketch.</desc>
    <defs></defs>
    <g id="Page-1" stroke="none" stroke-width="1" fill="none" fill-rule="evenodd">
        <g id="Twitter_TweetTreatment_TextOnlyOnImageOrVideoBackground" transform="translate(-378.000000, -276.000000)" fill="#657786">
            <g id="Group" transform="translate(302.000000, 276.000000)">
                <path d="M80.9750952,1.93585714 C79.1138707,1.93585714 77.4798571,3.71680952 77.4798571,5.7467415 C77.4798571,10.8882381 83.7791769,16.1317755 85.137,16.1875578 C86.4948231,16.1317755 92.7941429,10.8882381 92.7941429,5.7467415 C92.7941429,3.71680952 91.1601293,1.93585714 89.2975442,1.93585714 C87.0322381,1.93585714 85.7696531,4.56578912 85.7574082,4.59163946 C85.5506054,5.09504082 84.722034,5.09504082 84.5152313,4.59163946 C84.5043469,4.56578912 83.2404014,1.93585714 80.9750952,1.93585714 Z M76.137,5.7467415 C76.137,3.00252381 78.3982245,0.593 80.9750952,0.593 C83.0267959,0.593 84.4063878,2.00932653 85.137,3.03653741 C85.8676122,2.00932653 87.2458435,0.593 89.2975442,0.593 C91.8757755,0.593 94.137,3.00252381 94.137,5.7467415 C94.137,11.4583061 87.4621701,17.4882381 85.1492449,17.530415 C82.8118299,17.4882381 76.137,11.4583061 76.137,5.7467415 Z" id="Fill-33"></path>
            </g>
        </g>
    </g>
</svg>