<?xml version="1.0" encoding="UTF-8"?>
<svg width="28px" height="19px" viewBox="0 0 28 19" version="1.1" xmlns="http://www.w3.org/2000/svg" xmlns:xlink="http://www.w3.org/1999/xlink">
    <!-- Generator: Sketch 51.1 (57501) - http://www.bohemiancoding.com/sketch -->
    <title>Combined Shape</title>
    <desc>Created with Sketch.</desc>
    <defs></defs>
    <g id="Page-1" stroke="none" stroke-width="1" fill="none" fill-rule="evenodd">
        <g id="Twitter_TweetTreatment_TextOnlyOnImageOrVideoBackground" transform="translate(-338.000000, -277.000000)" fill="#657786">
            <g id="Group" transform="translate(302.000000, 276.000000)">
                <path d="M61.9252452,13.8251643 C62.2285719,13.5234093 62.7189237,13.5234093 63.0222504,13.8251643 C63.325577,14.1284909 63.325577,14.6204144 63.0222504,14.9221694 L59.0648593,18.8795605 C58.9202684,19.0257231 58.7222417,19.1074484 58.5163567,19.1074484 C58.3104718,19.1074484 58.1140167,19.0257231 57.9678542,18.8795605 L54.0120347,14.9221694 C53.7087081,14.6204144 53.7087081,14.1284909 54.0120347,13.8251643 C54.3153614,13.5234093 54.8057132,13.5234093 55.1090399,13.8251643 L57.7415379,16.4576623 L57.7415379,5.19371402 C57.7415379,3.90968363 56.6963969,2.86611426 55.4139382,2.86611426 L48.5348672,2.86611426 C48.1058093,2.86611426 47.7584767,2.51878169 47.7584767,2.0897238 C47.7584767,1.66066591 48.1058093,1.31333333 48.5348672,1.31333333 L55.4139382,1.31333333 C57.5513694,1.31333333 59.2927472,3.05471114 59.2927472,5.19371402 L59.2927472,16.4576623 L61.9252452,13.8251643 Z M44.2081405,17.762124 L51.0887832,17.762124 C51.5162694,17.762124 51.863602,18.1094566 51.863602,18.5385145 C51.863602,18.9660008 51.5162694,19.3133333 51.0887832,19.3133333 L44.2081405,19.3133333 C42.0691377,19.3133333 40.3293315,17.5735272 40.3293315,15.4345243 L40.3293315,4.16900434 L37.6968335,6.80150237 C37.3935068,7.10482901 36.9015833,7.10482901 36.5998283,6.80150237 C36.2965017,6.49817573 36.2965017,6.00782386 36.5998283,5.70449722 L40.5572194,1.74710614 C40.8589744,1.44535115 41.3508979,1.44535115 41.6542245,1.74710614 L45.610044,5.70449722 C45.9133706,6.00782386 45.9133706,6.49817573 45.610044,6.80150237 C45.4591665,6.95395151 45.2611398,7.02939026 45.0615414,7.02939026 C44.8635147,7.02939026 44.665488,6.95395151 44.5130388,6.80150237 L41.8805408,4.16900434 L41.8805408,15.4345243 C41.8805408,16.7185547 42.9256818,17.762124 44.2081405,17.762124 Z" id="Combined-Shape"></path>
            </g>
        </g>
    </g>
</svg>